# xmcd
#
# Track frame offsets: 
#        150
#        15433
#        27235
#        41570
#        54601
#
# Disc length: 862 seconds
#
# Revision: 0
# Processed by: cddbd v1.5.2PL0 Copyright (c) Steve Scherf et al.
# Submitted via: ExactAudioCopy v1.3
#
DISCID=34035c05
DTITLE=Various Artist - Top Hits Volume Five Trucker's Special
DYEAR=2006
DGENRE=Country
TTITLE0=Red Sovine - Phantom 309
TTITLE1=Willis Brothers - Give Me 40 Acres
TTITLE2=David Frizzell - 18 Wheels Hummin' Home Sweet Home
TTITLE3=Jack Greene - California Turnarounds
TTITLE4=Del Reeves - Looking At The World Through A Windshield
EXTD=
EXTT0=
EXTT1=
EXTT2=
EXTT3=
EXTT4=
PLAYORDER=
